<svg xmlns="http://www.w3.org/2000/svg" width="169" height="232" viewBox="0 0 169 232">
  <g id="Group_5" data-name="Group 5" transform="translate(-103 -174)">
    <text id="greeneat" transform="translate(103 395)" fill="#595858" font-size="42" font-family="SegoeUI, Segoe UI"><tspan x="0" y="0">green</tspan><tspan y="0" font-family="SegoeUI-Bold, Segoe UI" font-weight="700">eat</tspan></text>
    <g id="world" transform="translate(92 174)">
      <g id="Group_2" data-name="Group 2" transform="translate(12)">
        <g id="Group_1" data-name="Group 1">
          <path id="Path_1" data-name="Path 1" d="M179.624,32.349a32.338,32.338,0,0,0-62.933-10.484A78.52,78.52,0,0,0,61.27,23.612,20.585,20.585,0,0,0,23.763,35.289a38.419,38.419,0,0,0,3.258,15.377A79.378,79.378,0,1,0,170.8,97.046a78.52,78.52,0,0,0-7.514-33.64l10.346-13.451A29.011,29.011,0,0,0,179.624,32.349ZM63.9,28.887a73.011,73.011,0,0,1,12.19-3.758l9.116,27.326L51.871,99.669l-11.31-2.261L32.729,79.136,36.191,64.6,42,72.343a2.941,2.941,0,0,0,4.705,0L57.288,58.227a38.467,38.467,0,0,0,7.646-22.938A20.5,20.5,0,0,0,63.9,28.887Zm-19.553-8.3a14.722,14.722,0,0,1,14.7,14.7A32.565,32.565,0,0,1,52.583,54.7L44.348,65.676,36.114,54.7a32.568,32.568,0,0,1-6.47-19.409A14.722,14.722,0,0,1,44.348,20.585ZM56.914,161.952,50.386,144.01l7.537-25.126,23.526,11.763L62.364,164.575C60.505,163.775,58.691,162.9,56.914,161.952Zm11,4.741,0,0,20.171-35.86a2.941,2.941,0,0,0-1.122-4c-.042-.024-.085-.046-.128-.068l-29.408-14.7a2.94,2.94,0,0,0-3.938,1.335,2.9,2.9,0,0,0-.178.453l-8.822,29.408a2.941,2.941,0,0,0,.053,1.85l4.3,11.822a73.352,73.352,0,0,1-18.666-100.5c.4.609.8,1.217,1.235,1.8l.194.256-4.82,20.238a2.94,2.94,0,0,0,.159,1.838l8.822,20.585a2.941,2.941,0,0,0,2.126,1.723l14.7,2.941a2.737,2.737,0,0,0,.576.059,2.94,2.94,0,0,0,2.4-1.244L90.863,54.631A2.941,2.941,0,0,0,91.251,52L81.967,24.153a73.946,73.946,0,0,1,9.434-.626,73.165,73.165,0,0,1,23.914,4.07,32.508,32.508,0,0,0-.388,4.752,29.035,29.035,0,0,0,3.455,13.683L107.952,50.2a2.985,2.985,0,0,0-.985.653l-8.822,8.822a2.94,2.94,0,0,0-.862,2.079V82.342a2.941,2.941,0,0,0,1.176,2.353l11.763,8.822a2.987,2.987,0,0,0,1.126.521L135.513,99.4v17.248l-17.057,22.747a2.894,2.894,0,0,0-.473.959L112.1,160.937a2.941,2.941,0,0,0,2.647,3.741l4.749.294A73.305,73.305,0,0,1,67.916,166.692Zm97-69.646a73.546,73.546,0,0,1-35.142,62.68l-11.028-.691,4.729-16.548L140.806,119.4a2.94,2.94,0,0,0,.588-1.764V97.046a2.941,2.941,0,0,0-2.3-2.873l-25.849-5.743-10.078-7.558v-17.9l7.534-7.531,11.04-4.411L144.947,81.2a2.941,2.941,0,0,0,4.658,0l9.619-12.5A72.754,72.754,0,0,1,164.92,97.046ZM147.276,74.578l-21.7-28.205a23.132,23.132,0,0,1-4.77-14.025,26.467,26.467,0,1,1,52.934,0,23.132,23.132,0,0,1-4.77,14.025Z" transform="translate(-12)" fill="#595858"/>
        </g>
      </g>
      <g id="restaurant-interface-symbol-of-fork-and-knife-couple" transform="translate(13.462 15.56)">
        <g id="Group_3" data-name="Group 3" transform="translate(121.263)">
          <path id="Path_2" data-name="Path 2" d="M124.979,26.259V50.166a2.271,2.271,0,0,0,4.542,0V26.259c.683-.239,3.244-2.522,3.244-3.253V13.39a1.15,1.15,0,0,0-2.3,0v7.476a1.15,1.15,0,0,1-2.3,0V13.39a1.15,1.15,0,0,0-2.3,0v7.476a1.15,1.15,0,0,1-2.3,0V13.39a1.15,1.15,0,0,0-2.3,0v9.615C121.263,23.737,124.3,26.019,124.979,26.259Z" transform="translate(-121.263 -11.296)" fill="#595858"/>
          <path id="Path_3" data-name="Path 3" d="M198.607,534.046l-.029,0c-.01,0-.019,0-.029,0Z" transform="translate(-192.591 -492.876)" fill="#595858"/>
          <path id="Path_4" data-name="Path 4" d="M389.148,540.167l-.029,0-.029,0Z" transform="translate(-368.445 -498.526)" fill="#595858"/>
          <path id="Path_5" data-name="Path 5" d="M319.26,20.7h2.611V39.341a2.271,2.271,0,0,0,4.542,0V1.15a1.108,1.108,0,0,0-.341-.809A1.106,1.106,0,0,0,325.264,0h-.827a5.538,5.538,0,0,0-4.062,1.689,5.54,5.54,0,0,0-1.689,4.062V20.129a.583.583,0,0,0,.574.575Z" transform="translate(-303.468)" fill="#595858"/>
        </g>
      </g>
    </g>
  </g>
</svg>
